<?xml version="1.0" encoding="UTF-8" standalone="no"?>
<!-- Created with Inkscape (http://www.inkscape.org/) -->

<svg
   xmlns:dc="http://purl.org/dc/elements/1.1/"
   xmlns:cc="http://creativecommons.org/ns#"
   xmlns:rdf="http://www.w3.org/1999/02/22-rdf-syntax-ns#"
   xmlns:svg="http://www.w3.org/2000/svg"
   xmlns="http://www.w3.org/2000/svg"
   xmlns:sodipodi="http://sodipodi.sourceforge.net/DTD/sodipodi-0.dtd"
   xmlns:inkscape="http://www.inkscape.org/namespaces/inkscape"
   width="425.76114mm"
   height="72.420113mm"
   viewBox="0 0 425.76114 72.420113"
   version="1.1"
   id="svg8"
   inkscape:version="0.92.4 (5da689c313, 2019-01-14)"
   sodipodi:docname="logo-markerspro.svg">
  <defs
     id="defs2" />
  <sodipodi:namedview
     id="base"
     pagecolor="#ffffff"
     bordercolor="#666666"
     borderopacity="1.0"
     inkscape:pageopacity="0.0"
     inkscape:pageshadow="2"
     inkscape:zoom="0.35"
     inkscape:cx="911.73085"
     inkscape:cy="15.277236"
     inkscape:document-units="mm"
     inkscape:current-layer="layer1"
     showgrid="false"
     fit-margin-top="0"
     fit-margin-left="0"
     fit-margin-right="0"
     fit-margin-bottom="0"
     inkscape:window-width="1366"
     inkscape:window-height="705"
     inkscape:window-x="-8"
     inkscape:window-y="-8"
     inkscape:window-maximized="1" />
  <metadata
     id="metadata5">
    <rdf:RDF>
      <cc:Work
         rdf:about="">
        <dc:format>image/svg+xml</dc:format>
        <dc:type
           rdf:resource="http://purl.org/dc/dcmitype/StillImage" />
        <dc:title></dc:title>
      </cc:Work>
    </rdf:RDF>
  </metadata>
  <g
     inkscape:label="Layer 1"
     inkscape:groupmode="layer"
     id="layer1"
     transform="translate(258.23772,-80.455323)">
    <g
       transform="matrix(0.72615975,0,0,0.72615975,-96.950914,-6.0643652)"
       id="layer1-0">
	<g
   transform="matrix(0.35277777,0,0,-0.35277777,-233.04318,221.22693)"
   id="g823">
		<g
   transform="translate(112.5938,230.5811)"
   id="g825">
			<path
   d="m 149.7,-107.8 -69,-44.8 -162.3,105 v -176.2 h 59.9 v 66.3 l 102.3,-66.3 0.1,0.2 0.1,-0.2 68.9,44.7 z"
   id="path827"
   inkscape:connector-curvature="0"
   style="fill:#3679be" />

		</g>

		<g
   transform="translate(88.2451,252.2607)"
   id="g829">
			<path
   d="M 105,-68.1 -57.1,37.1 -57.2,36.9 v -71.1 l 162.1,-105.2 0.1,0.2 0.1,-0.2 102.2,66.3 v -172.5 h 59.9 V 36.9 Z"
   id="path831"
   inkscape:connector-curvature="0"
   style="fill:#082842" />

		</g>

		<g
   id="g821"
   style="fill:#082842;fill-opacity:1">
			<path
   id="path819"
   d="m 532.6,53 -56.4,147.4 h -0.9 c 1.1,-11.7 1.6,-25.6 1.6,-41.6 V 53 H 459 v 166.3 h 29.1 L 540.8,82.1 h 0.9 l 53.1,137.2 h 28.9 V 53 h -19.3 v 107.1 c 0,12.3 0.5,25.6 1.6,40 h -0.9 L 548.2,53 Z"
   inkscape:connector-curvature="0"
   style="fill:#082842;fill-opacity:1" />

		</g>

		<g
   id="g826"
   style="fill:#082842;fill-opacity:1">
			<path
   id="path823"
   d="m 743.2,53 -3.8,17.7 h -0.9 C 732.3,62.9 726.1,57.6 719.9,54.8 713.7,52 706,50.6 696.8,50.6 c -12.4,0 -22,3.2 -29.1,9.6 -7,6.4 -10.5,15.4 -10.5,27.2 0,25.2 20.1,38.4 60.4,39.6 l 21.2,0.7 v 7.7 c 0,9.8 -2.1,17 -6.3,21.7 -4.2,4.7 -10.9,7 -20.2,7 -10.4,0 -22.1,-3.2 -35.3,-9.6 l -5.8,14.4 c 6.1,3.3 12.9,6 20.2,7.8 7.3,1.9 14.7,2.8 22,2.8 14.9,0 25.9,-3.3 33,-9.9 7.1,-6.6 10.7,-17.2 10.7,-31.7 V 53 Z m -42.7,13.3 c 11.8,0 21,3.2 27.7,9.7 6.7,6.4 10.1,15.5 10.1,27.1 v 11.3 l -18.9,-0.8 c -15,-0.5 -25.8,-2.9 -32.5,-7 -6.6,-4.1 -10,-10.6 -10,-19.3 0,-6.8 2.1,-12 6.2,-15.6 4.2,-3.7 10,-5.4 17.4,-5.4 z"
   inkscape:connector-curvature="0"
   style="fill:#082842;fill-opacity:1" />

		</g>

		<g
   id="g830"
   style="fill:#082842;fill-opacity:1">
			<path
   id="path828"
   d="m 852.9,179.9 c 5.5,0 10.5,-0.5 14.9,-1.4 L 865.2,161 c -5.2,1.1 -9.7,1.7 -13.6,1.7 -10.1,0 -18.7,-4.1 -25.9,-12.3 C 818.5,142.2 815,132 815,119.8 V 53 h -19 v 124.7 h 15.6 l 2.2,-23.1 h 0.9 c 4.6,8.1 10.2,14.4 16.7,18.8 6.5,4.3 13.7,6.5 21.5,6.5 z"
   inkscape:connector-curvature="0"
   style="fill:#082842;fill-opacity:1" />

		</g>

		<g
   id="g834"
   style="fill:#082842;fill-opacity:1">
			<path
   id="path832"
   d="m 909.7,116.8 c 3.3,4.6 8.2,10.7 14.9,18.2 l 40.3,42.7 h 22.4 l -50.5,-53.1 54,-71.5 H 968 L 924,112 909.8,99.7 V 53 h -18.7 v 177 h 18.7 v -93.8 c 0,-4.2 -0.3,-10.6 -0.9,-19.3 z"
   inkscape:connector-curvature="0"
   style="fill:#082842;fill-opacity:1" />

		</g>

		<g
   id="g838"
   style="fill:#082842;fill-opacity:1">
			<path
   id="path836"
   d="m 1066,50.7 c -18.4,0 -33,5.6 -43.6,16.8 -10.7,11.2 -16,26.8 -16,46.7 0,20.1 4.9,36.1 14.8,47.9 9.9,11.8 23.2,17.7 39.9,17.7 15.6,0 28,-5.1 37.1,-15.4 9.1,-10.3 13.7,-23.8 13.7,-40.7 V 111.8 H 1026 c 0.4,-14.6 4.1,-25.7 11.1,-33.3 7,-7.6 16.9,-11.4 29.6,-11.4 13.4,0 26.7,2.8 39.8,8.4 V 58.8 c -6.7,-2.9 -13,-4.9 -18.9,-6.2 -6,-1.3 -13.2,-1.9 -21.6,-1.9 z m -5.1,113.4 c -10,0 -18,-3.3 -23.9,-9.8 -6,-6.5 -9.5,-15.5 -10.5,-27.1 h 65.2 c 0,11.9 -2.7,21 -8,27.4 -5.4,6.3 -12.9,9.5 -22.8,9.5 z"
   inkscape:connector-curvature="0"
   style="fill:#082842;fill-opacity:1" />

		</g>

		<g
   id="g842"
   style="fill:#082842;fill-opacity:1">
			<path
   id="path840"
   d="m 1200.9,179.9 c 5.5,0 10.5,-0.5 14.9,-1.4 l -2.6,-17.5 c -5.2,1.1 -9.7,1.7 -13.7,1.7 -10.1,0 -18.7,-4.1 -25.9,-12.3 -7.2,-8.2 -10.7,-18.4 -10.7,-30.6 V 53 H 1144 v 124.7 h 15.6 l 2.2,-23.1 h 0.9 c 4.6,8.1 10.2,14.4 16.7,18.8 6.5,4.3 13.7,6.5 21.5,6.5 z"
   inkscape:connector-curvature="0"
   style="fill:#082842;fill-opacity:1" />

		</g>

		<g
   id="g846"
   style="fill:#082842;fill-opacity:1">
			<path
   id="path844"
   d="m 1319.5,87 c 0,-11.6 -4.3,-20.5 -13,-26.8 -8.6,-6.3 -20.8,-9.4 -36.4,-9.4 -16.5,0 -29.4,2.6 -38.7,7.8 V 76 c 6,-3 12.4,-5.4 19.3,-7.2 6.9,-1.7 13.5,-2.6 19.8,-2.6 9.9,0 17.4,1.6 22.7,4.7 5.3,3.1 8,7.9 8,14.4 0,4.9 -2.1,9 -6.3,12.5 -4.2,3.4 -12.4,7.5 -24.6,12.2 -11.6,4.3 -19.8,8.1 -24.7,11.3 -4.9,3.2 -8.5,6.9 -10.9,11 -2.4,4.1 -3.6,9 -3.6,14.7 0,10.2 4.1,18.2 12.4,24.1 8.3,5.9 19.6,8.8 34,8.8 13.4,0 26.5,-2.7 39.4,-8.2 l -6.7,-15.4 c -12.5,5.2 -23.8,7.7 -34,7.7 -8.9,0 -15.7,-1.4 -20.2,-4.2 -4.6,-2.8 -6.8,-6.7 -6.8,-11.6 0,-3.3 0.9,-6.2 2.6,-8.5 1.7,-2.4 4.5,-4.6 8.2,-6.7 3.8,-2.1 11.1,-5.2 21.8,-9.2 14.8,-5.4 24.8,-10.8 30,-16.3 5.1,-5.4 7.7,-12.3 7.7,-20.5 z"
   inkscape:connector-curvature="0"
   style="fill:#082842;fill-opacity:1" />

		</g>

		<g
   id="g850">
			<path
   id="path848"
   d="m 1458.5,170.8 c 0,-16.8 -5.7,-29.8 -17.2,-38.8 -11.5,-9.1 -27.9,-13.6 -49.3,-13.6 h -19.6 V 53 H 1353 v 166.3 h 43.1 c 41.6,-0.1 62.4,-16.2 62.4,-48.5 z M 1372.4,135 h 17.4 c 17.1,0 29.5,2.8 37.2,8.3 7.7,5.5 11.5,14.4 11.5,26.6 0,11 -3.6,19.2 -10.8,24.6 -7.2,5.4 -18.4,8.1 -33.7,8.1 h -21.6 V 135 Z"
   inkscape:connector-curvature="0"
   style="fill:#3679be" />

		</g>

		<g
   id="g854">
			<path
   id="path852"
   d="m 1547.3,179.9 c 5.5,0 10.5,-0.5 14.9,-1.4 l -2.6,-17.5 c -5.2,1.1 -9.7,1.7 -13.6,1.7 -10.1,0 -18.7,-4.1 -25.9,-12.3 -7.2,-8.2 -10.7,-18.4 -10.7,-30.6 V 53 h -18.9 v 124.7 h 15.6 l 2.2,-23.1 h 0.9 c 4.6,8.1 10.2,14.4 16.7,18.8 6.4,4.3 13.6,6.5 21.4,6.5 z"
   inkscape:connector-curvature="0"
   style="fill:#3679be" />

		</g>

		<g
   id="g858">
			<path
   id="path856"
   d="m 1693,115.4 c 0,-20.3 -5.1,-36.2 -15.4,-47.6 -10.2,-11.4 -24.4,-17.1 -42.4,-17.1 -11.1,0 -21,2.6 -29.7,7.8 -8.6,5.2 -15.3,12.7 -20,22.5 -4.7,9.8 -7.1,21.2 -7.1,34.3 0,20.3 5.1,36.1 15.2,47.5 10.2,11.3 24.3,17 42.3,17 17.4,0 31.3,-5.8 41.6,-17.4 10.4,-11.5 15.5,-27.2 15.5,-47 z m -94.9,0 c 0,-15.9 3.2,-28.1 9.6,-36.4 6.4,-8.3 15.7,-12.5 28.1,-12.5 12.4,0 21.7,4.2 28.1,12.5 6.4,8.3 9.6,20.5 9.6,36.5 0,15.8 -3.2,27.9 -9.6,36.1 -6.4,8.2 -15.9,12.3 -28.4,12.3 -12.4,0 -21.7,-4.1 -28,-12.2 -6.3,-8.1 -9.4,-20.2 -9.4,-36.3 z"
   inkscape:connector-curvature="0"
   style="fill:#3679be" />

		</g>

	</g>

</g>
  </g>
</svg>
